<svg xmlns="http://www.w3.org/2000/svg" fill="none" viewBox="0 0 640 640">
  <path fill="black" d="M342.831 110L333.512 199.501L422.971 174.329L429.494 217.214L343.762 224.206L399.208 297.858L359.138 319.767L319.534 238.191L283.657 319.767L242.19 297.858L296.703 224.206L211.904 217.214L218.427 174.329L306.954 199.501L297.169 110H342.831ZM197.926 320.233L188.608 409.734L278.066 384.562L284.589 427.447L198.858 434.44L254.304 508.091L214.234 530L174.63 448.424L138.753 530L97.2855 508.091L151.799 434.44L67 427.447L73.523 384.562L162.05 409.734L152.265 320.233H197.926ZM486.337 320.233L477.018 409.734L566.477 384.562L573 427.447L487.269 434.44L542.714 508.091L502.645 530L463.041 448.424L427.164 530L385.696 508.091L440.21 434.44L355.411 427.447L361.934 384.562L450.46 409.734L440.676 320.233H486.337Z" />
	<style>
    @media (prefers-color-scheme:dark){:root{filter:invert(100%)}}
  </style>
</svg>
