<svg width="512" height="512" viewBox="0 0 512 512" fill="none" xmlns="http://www.w3.org/2000/svg">
<mask id="mask0" mask-type="alpha" maskUnits="userSpaceOnUse" x="0" y="0" width="512" height="512">
<rect width="512" height="512" rx="135" fill="#FF0000"/>
</mask>
<g mask="url(#mask0)">
<rect width="512" height="512" fill="black"/>
<path d="M232.032 175.182C261.603 175.182 285.319 183.997 303.179 201.627C321.332 219.257 330.409 245.849 330.409 281.402V418.033H246.964V295.065C246.964 262.45 233.935 246.142 207.877 246.142C193.53 246.142 181.965 250.844 173.181 260.246C164.69 269.649 160.445 283.753 160.445 302.558V418.033H77V91H160.445V201.186C169.521 192.665 180.208 186.201 192.505 181.794C204.802 177.386 217.978 175.182 232.032 175.182Z" fill="white"/>
<path d="M417.933 422C403.879 422 392.021 417.299 382.359 407.896C372.697 398.494 367.866 386.593 367.866 372.196C367.866 357.504 372.551 345.604 381.92 336.495C391.582 327.387 403.586 322.832 417.933 322.832C432.573 322.832 444.577 327.387 453.946 336.495C463.315 345.604 468 357.504 468 372.196C468 386.593 463.169 398.494 453.507 407.896C444.138 417.299 432.28 422 417.933 422Z" fill="white"/>
</g>
</svg>
