<svg width="512" height="512" viewBox="0 0 512 512" fill="none" xmlns="http://www.w3.org/2000/svg">
<mask id="mask0" mask-type="alpha" maskUnits="userSpaceOnUse" x="0" y="0" width="512" height="512">
<rect width="512" height="512" rx="135" fill="#FF0000"/>
</mask>
<g mask="url(#mask0)">
<rect width="512" height="512" fill="#039583"/>
<path d="M106.08 180.26V160H135.977V180.26H175.911V199.453H154.983C164.379 210.756 170.358 226.75 170.572 245.304C170.358 281.345 150.071 308.215 121.028 308.215C91.1312 308.429 71.271 281.345 71.271 245.304C71.271 226.75 77.2504 210.756 86.6466 199.453H67V180.26H106.08ZM121.028 199.88C109.283 199.88 99.8868 217.793 100.1 245.304C99.8868 271.535 109.069 289.022 120.815 289.022C132.774 289.022 141.743 271.961 141.743 245.304C141.743 216.514 133.201 199.88 121.028 199.88ZM223.96 237.84V353H195.13V160H223.96V218.646H251.721V237.84H223.96Z" fill="white"/>
<path d="M303.911 278.359H352.387C365.413 278.359 375.237 278.999 387.409 272.601V160H416.238V218.646H444V237.84H416.238V353H387.409V291.794C377.372 296.273 363.919 297.552 351.746 297.552H287.895C275.295 297.552 265.685 285.397 265.685 271.108V168.53H294.515V270.469C294.515 275.373 297.718 278.359 303.911 278.359Z" fill="white"/>
</g>
</svg>
