<svg width="512" height="512" viewBox="0 0 512 512" fill="none" xmlns="http://www.w3.org/2000/svg">
<mask id="mask0" mask-type="alpha" maskUnits="userSpaceOnUse" x="0" y="0" width="512" height="512">
<rect width="512" height="512" rx="135" fill="#FF0000"/>
</mask>
<g mask="url(#mask0)">
<rect width="512" height="512" fill="#122464"/>
<path d="M-273 297.717L-263.844 278.048C-254.689 259.115 -236.378 218.676 -218.067 209.485C-199.756 200.295 -181.444 218.676 -163.133 268.306C-144.822 317.936 -126.511 395.139 -108.2 425.1C-89.8889 453.959 -71.5778 435.578 -53.2667 435.027C-34.9556 435.578 -16.6444 453.959 1.66667 385.948C19.9778 317.936 38.2889 159.855 56.6 140.922C74.9111 121.254 93.2222 238.896 111.533 327.127C129.844 415.358 148.156 474.179 166.467 454.511C184.778 435.578 203.089 336.318 221.4 307.459C239.711 277.497 258.022 317.936 276.333 297.717C294.644 277.497 312.956 200.295 331.267 140.922C349.578 82.6528 367.889 42.2135 386.2 111.512C404.511 180.075 422.822 356.537 441.133 366.28C459.444 376.757 477.756 218.676 496.067 199.743C514.378 180.075 532.689 297.717 541.844 356.537L551 415.358V533H541.844C532.689 533 514.378 533 496.067 533C477.756 533 459.444 533 441.133 533C422.822 533 404.511 533 386.2 533C367.889 533 349.578 533 331.267 533C312.956 533 294.644 533 276.333 533C258.022 533 239.711 533 221.4 533C203.089 533 184.778 533 166.467 533C148.156 533 129.844 533 111.533 533C93.2222 533 74.9111 533 56.6 533C38.2889 533 19.9778 533 1.66667 533C-16.6444 533 -34.9556 533 -53.2667 533C-71.5778 533 -89.8889 533 -108.2 533C-126.511 533 -144.822 533 -163.133 533C-181.444 533 -199.756 533 -218.067 533C-236.378 533 -254.689 533 -263.844 533H-273V297.717Z" fill="#0099FF"/>
</g>
</svg>
