<svg width="512" height="512" viewBox="0 0 512 512" fill="none" xmlns="http://www.w3.org/2000/svg">
<mask id="mask0" mask-type="alpha" maskUnits="userSpaceOnUse" x="0" y="0" width="512" height="512">
<rect width="512" height="512" rx="135" fill="#FF0000"/>
</mask>
<g mask="url(#mask0)">
<rect width="512" height="512" fill="#3A3A3A"/>
<path d="M80.176 156.368V362H106.096V196.976H106.672L214.096 362H244.048V156.368H218.128V323.12H217.552L109.264 156.368H80.176Z" fill="white"/>
<path d="M407.252 216.56H433.172C432.788 205.232 430.58 195.536 426.548 187.472C422.708 179.216 417.332 172.4 410.42 167.024C403.7 161.648 395.828 157.712 386.804 155.216C377.78 152.72 367.988 151.472 357.428 151.472C348.02 151.472 338.804 152.72 329.78 155.216C320.948 157.52 312.98 161.168 305.876 166.16C298.964 170.96 293.396 177.2 289.172 184.88C284.948 192.368 282.836 201.296 282.836 211.664C282.836 221.072 284.66 228.944 288.308 235.28C292.148 241.424 297.14 246.512 303.284 250.544C309.62 254.384 316.724 257.552 324.596 260.048C332.468 262.352 340.436 264.464 348.5 266.384C356.756 268.112 364.82 269.84 372.692 271.568C380.564 273.296 387.572 275.6 393.716 278.48C400.052 281.168 405.044 284.72 408.692 289.136C412.532 293.552 414.452 299.312 414.452 306.416C414.452 313.904 412.916 320.048 409.844 324.848C406.772 329.648 402.74 333.488 397.748 336.368C392.756 339.056 387.092 340.976 380.756 342.128C374.612 343.28 368.468 343.856 362.324 343.856C354.644 343.856 347.156 342.896 339.86 340.976C332.564 339.056 326.132 336.08 320.564 332.048C315.188 328.016 310.772 322.928 307.316 316.784C304.052 310.448 302.42 302.96 302.42 294.32H276.5C276.5 306.8 278.708 317.648 283.124 326.864C287.732 335.888 293.876 343.376 301.556 349.328C309.428 355.088 318.452 359.408 328.628 362.288C338.996 365.168 349.94 366.608 361.46 366.608C370.868 366.608 380.276 365.456 389.684 363.152C399.284 361.04 407.924 357.584 415.604 352.784C423.284 347.792 429.524 341.456 434.324 333.776C439.316 325.904 441.812 316.496 441.812 305.552C441.812 295.376 439.892 286.928 436.052 280.208C432.404 273.488 427.412 267.92 421.076 263.504C414.932 259.088 407.924 255.632 400.052 253.136C392.18 250.448 384.116 248.144 375.86 246.224C367.796 244.304 359.828 242.576 351.956 241.04C344.084 239.312 336.98 237.2 330.644 234.704C324.5 232.208 319.508 229.04 315.668 225.2C312.02 221.168 310.196 215.984 310.196 209.648C310.196 202.928 311.444 197.36 313.94 192.944C316.628 188.336 320.084 184.688 324.308 182C328.724 179.312 333.716 177.392 339.284 176.24C344.852 175.088 350.516 174.512 356.276 174.512C370.484 174.512 382.1 177.872 391.124 184.592C400.34 191.12 405.716 201.776 407.252 216.56Z" fill="white"/>
</g>
</svg>
